<svg width="42" height="41" viewBox="0 0 42 41" fill="none" xmlns="http://www.w3.org/2000/svg">
<g clip-path="url(#clip0)">
<rect opacity="0.1" y="0.212524" width="42" height="40" rx="20" fill="#5A7184"/>
<path d="M28.9583 20.7334C28.9583 20.2334 28.8958 19.8584 28.8333 19.4521H21.4583V22.1084H25.8333C25.677 23.2646 24.5208 25.4521 21.4583 25.4521C18.802 25.4521 16.6458 23.2646 16.6458 20.5459C16.6458 16.2021 21.7708 14.2021 24.5208 16.8584L26.6458 14.8271C25.302 13.5771 23.5208 12.7959 21.4583 12.7959C17.1458 12.7959 13.7083 16.2646 13.7083 20.5459C13.7083 24.8584 17.1458 28.2959 21.4583 28.2959C25.927 28.2959 28.9583 25.1709 28.9583 20.7334Z" fill="#5A7184"/>
</g>
<defs>
<clipPath id="clip0">
<rect width="42" height="40.0599" fill="white" transform="translate(0 0.212524)"/>
</clipPath>
</defs>
</svg>
