<svg width="40" height="41" viewBox="0 0 40 41" fill="none" xmlns="http://www.w3.org/2000/svg">
<g clip-path="url(#clip0)">
<rect opacity="0.1" y="0.212524" width="40" height="40" rx="20" fill="#5A7184"/>
<path d="M20.3333 16.9521C18.3333 16.9521 16.7395 18.5771 16.7395 20.5459C16.7395 22.5459 18.3333 24.1396 20.3333 24.1396C22.302 24.1396 23.927 22.5459 23.927 20.5459C23.927 18.5771 22.302 16.9521 20.3333 16.9521ZM20.3333 22.8896C19.052 22.8896 17.9895 21.8584 17.9895 20.5459C17.9895 19.2646 19.0208 18.2334 20.3333 18.2334C21.6145 18.2334 22.6458 19.2646 22.6458 20.5459C22.6458 21.8584 21.6145 22.8896 20.3333 22.8896ZM24.8958 16.8271C24.8958 16.3584 24.5208 15.9834 24.052 15.9834C23.5833 15.9834 23.2083 16.3584 23.2083 16.8271C23.2083 17.2959 23.5833 17.6709 24.052 17.6709C24.5208 17.6709 24.8958 17.2959 24.8958 16.8271ZM27.2708 17.6709C27.2083 16.5459 26.9583 15.5459 26.1458 14.7334C25.3333 13.9209 24.3333 13.6709 23.2083 13.6084C22.052 13.5459 18.5833 13.5459 17.427 13.6084C16.302 13.6709 15.3333 13.9209 14.4895 14.7334C13.677 15.5459 13.427 16.5459 13.3645 17.6709C13.302 18.8271 13.302 22.2959 13.3645 23.4521C13.427 24.5771 13.677 25.5459 14.4895 26.3896C15.3333 27.2021 16.302 27.4521 17.427 27.5146C18.5833 27.5771 22.052 27.5771 23.2083 27.5146C24.3333 27.4521 25.3333 27.2021 26.1458 26.3896C26.9583 25.5459 27.2083 24.5771 27.2708 23.4521C27.3333 22.2959 27.3333 18.8271 27.2708 17.6709ZM25.7708 24.6709C25.552 25.2959 25.052 25.7646 24.4583 26.0146C23.5208 26.3896 21.3333 26.2959 20.3333 26.2959C19.302 26.2959 17.1145 26.3896 16.2083 26.0146C15.5833 25.7646 15.1145 25.2959 14.8645 24.6709C14.4895 23.7646 14.5833 21.5771 14.5833 20.5459C14.5833 19.5459 14.4895 17.3584 14.8645 16.4209C15.1145 15.8271 15.5833 15.3584 16.2083 15.1084C17.1145 14.7334 19.302 14.8271 20.3333 14.8271C21.3333 14.8271 23.5208 14.7334 24.4583 15.1084C25.052 15.3271 25.5208 15.8271 25.7708 16.4209C26.1458 17.3584 26.052 19.5459 26.052 20.5459C26.052 21.5771 26.1458 23.7646 25.7708 24.6709Z" fill="#5A7184"/>
</g>
<defs>
<clipPath id="clip0">
<rect width="40" height="40.0599" fill="white" transform="translate(0 0.212524)"/>
</clipPath>
</defs>
</svg>
