<svg width="40" height="41" viewBox="0 0 40 41" fill="none" xmlns="http://www.w3.org/2000/svg">
<g clip-path="url(#clip0)">
<rect opacity="0.1" y="0.212524" width="40" height="40" rx="20" fill="#5A7184"/>
<path d="M26.3333 13.5459H14.302C13.7708 13.5459 13.3333 14.0146 13.3333 14.5771V26.5459C13.3333 27.1084 13.7708 27.5459 14.302 27.5459H26.3333C26.8645 27.5459 27.3333 27.1084 27.3333 26.5459V14.5771C27.3333 14.0146 26.8645 13.5459 26.3333 13.5459ZM17.552 25.5459H15.4895V18.8896H17.552V25.5459ZM16.5208 17.9521C15.8333 17.9521 15.302 17.4209 15.302 16.7646C15.302 16.1084 15.8333 15.5459 16.5208 15.5459C17.177 15.5459 17.7083 16.1084 17.7083 16.7646C17.7083 17.4209 17.177 17.9521 16.5208 17.9521ZM25.3333 25.5459H23.2395V22.2959C23.2395 21.5459 23.2395 20.5459 22.177 20.5459C21.0833 20.5459 20.927 21.3896 20.927 22.2646V25.5459H18.8645V18.8896H20.8333V19.7959H20.8645C21.1458 19.2646 21.8333 18.7021 22.8333 18.7021C24.927 18.7021 25.3333 20.1084 25.3333 21.8896V25.5459Z" fill="#5A7184"/>
</g>
<defs>
<clipPath id="clip0">
<rect width="40" height="40.0599" fill="white" transform="translate(0 0.212524)"/>
</clipPath>
</defs>
</svg>
