<svg width="42" height="41" viewBox="0 0 42 41" fill="none" xmlns="http://www.w3.org/2000/svg">
<g clip-path="url(#clip0)">
<rect opacity="0.1" y="0.212524" width="42" height="40" rx="20" fill="#5A7184"/>
<path d="M27.677 17.2959C28.302 16.8271 28.8645 16.2646 29.302 15.6084C28.7395 15.8584 28.0833 16.0459 27.427 16.1084C28.1145 15.7021 28.6145 15.0771 28.8645 14.2959C28.2395 14.6709 27.5208 14.9521 26.802 15.1084C26.177 14.4521 25.3333 14.0771 24.3958 14.0771C22.5833 14.0771 21.1145 15.5459 21.1145 17.3584C21.1145 17.6084 21.1458 17.8584 21.2083 18.1084C18.4895 17.9521 16.052 16.6396 14.427 14.6709C14.1458 15.1396 13.9895 15.7021 13.9895 16.3271C13.9895 17.4521 14.552 18.4521 15.4583 19.0459C14.927 19.0146 14.3958 18.8896 13.9583 18.6396V18.6709C13.9583 20.2646 15.0833 21.5771 16.5833 21.8896C16.3333 21.9521 16.0208 22.0146 15.7395 22.0146C15.5208 22.0146 15.3333 21.9834 15.1145 21.9521C15.5208 23.2646 16.7395 24.2021 18.177 24.2334C17.052 25.1084 15.6458 25.6396 14.1145 25.6396C13.8333 25.6396 13.5833 25.6084 13.3333 25.5771C14.7708 26.5146 16.4895 27.0459 18.3645 27.0459C24.3958 27.0459 27.677 22.0771 27.677 17.7334C27.677 17.5771 27.677 17.4521 27.677 17.2959Z" fill="#5A7184"/>
</g>
<defs>
<clipPath id="clip0">
<rect width="42" height="40.0599" fill="white" transform="translate(0 0.212524)"/>
</clipPath>
</defs>
</svg>
